<?xml version="1.0" encoding="utf-8"?>
<svg viewBox="210 138 168 170" xmlns="http://www.w3.org/2000/svg">
  <g transform="matrix(1, 0, 0, 1, -29.025916, 166.889241)">
    <g transform="matrix(1, 0, 0, 1, -86.019458, -78.329829)">
      <path style="fill:#F2F7F8;" d="M414.085,61.577c4.225-2.661,8.517-5.079,12.966-7.204c-3.357-0.871-6.08-0.725-6.379-0.704 c-0.633,0.044-8.983,0.747-13.723,7.115c-2.154,2.894-2.972,6.158-3.706,8.109C407.039,67.052,410.522,63.821,414.085,61.577z"/>
      <path style="fill:#F2F7F8;" d="M482.783,84.544c-1.911-1.514-3.928-1.867-4.785-2.007c-4.866-0.795-7.373,2.294-9.348,0.927 c-1.478-1.023-0.276-2.859-1.759-6.2c-0.163-0.368-2.126-4.618-6.661-6.326c-3.757-1.415-7.253-0.322-8.664,0.119 c-5.335,1.668-6.958,5.278-8.819,4.465c-1.649-0.72-0.807-3.692-2.495-8.553c-0.347-1-1.762-4.831-4.758-7.878 c-1.825-1.856-3.909-3.084-5.926-3.895c-7.941,3.579-15.415,8.119-22.42,13.328c-7.749,5.762-16.878,2.446-25.838,3.304 c-6.178,0.592-11.419,3.791-16.25,7.482c-2.225,1.7-3.369,3.461-5.143,5.545c-0.446,0.523-1.206,1.574-1.996,1.78 c-1.785,0.467-4.594-0.913-6.804-2.045c0.51,1.557,1.467,2.357,1.227,2.637c-0.27,0.315-1.553-0.615-3.348-1.256 c-2.16-0.771-3.992-0.73-5.132-0.725c-0.874,0.004-4.453,0.097-7.965,2.219c-0.075,0.045-0.186,0.113-0.328,0.202 c-0.704,0.445-6.974,4.567-6.946,11.073c0.016,3.784,2.159,7.37,4.909,9.313c3.16,2.233,4.997,0.796,11.28,3.3 c3.733,1.488,3.301,2.081,6.73,3.363c5.046,1.886,9.443,1.896,12.014,1.878c3.227-0.022,6.953-0.047,11.332-1.686 c4.859-1.818,7.714-4.571,11.398-3.446c0.969,0.296,1.014,0.594,2.549,1.058c0.805,0.243,3.525,1.004,7.1,0.732 c5.942-0.452,7.317-3.23,11.349-3.62c4.661-0.451,7.071,3.428,11.512,5.255c15.656,6.439,37.872,2.855,44.305-7.66 c1.248-2.04,1.472-3.638,3.538-5.201c5.009-3.788,10.684,0.233,15.944-3.608c0.504-0.368,3.558-2.673,3.836-6.373 C486.742,87.771,483.124,84.813,482.783,84.544z"/>
      <path style="fill:#FFFFFF;" d="M482.901,102.032c-4.661,2.294-13.502-1.243-15.51,0.425c-0.562,0.467-1.003,1.003-1.003,1.003 c-0.853,1.109-0.872,2.138-3.249,4.773c-3.917,4.341-8.436,6.364-8.619,6.107c-0.268-0.375,4.888-2.87,9.26-8.794 c1.878-2.544,8.228-11.148,5.292-20.349c-1.774-5.559-6.013-8.438-6.803-8.957c-7.41-4.861-15.641-1.599-16.213-1.36 c-3.316,1.38-5.454,3.509-6.567,4.802c-0.679-1.793-2.444-5.711-6.537-8.827c-4.094-3.117-8.234-3.694-10.484-3.976 c-7.727-0.969-13.749,2.165-15.481,3.096c-4.937,2.655-5.706,5.068-8.245,6.585c-0.631,0.377-1.436,0.726-2.419,0.984 c-0.992,0.26-1.84,0.319-2.402,0.328c-2.233-4.101-6.674-5.782-9.922-4.438c-3.006,1.243-3.932,4.64-4.055,5.119 c-0.867-0.55-2.441-1.378-4.522-1.536c-3.045-0.232-5.294,1.111-6.62,1.903c-5.379,3.212-7.333,9.073-7.886,10.982 c-1.275-0.751-3.066-1.502-4.832-0.988c-2.178,0.634-2.513,2.665-4.154,2.804c-2.067,0.174-2.931-2.931-5.519-4.546 c-1.873-1.168-5.063-1.814-10.84,0.497c1.614-0.955,4.571-2.384,8.293-2.421c1.163-0.012,3.007-0.11,5.132,0.725 c0.55,0.216,0.991,0.442,1.297,0.613c-0.163-0.6-0.346-1.567-0.213-2.741c0.055-0.487,0.251-2.055,1.352-3.479 c1.611-2.083,4.67-3.225,6.925-2.409c1.618,0.586,2.438,2.041,2.799,1.796c0.359-0.244-0.671-1.536-0.558-3.319 c0.161-2.552,2.547-4.224,2.879-4.45c0.612-0.416,2.632-1.789,4.951-1.051c1.465,0.466,2.306,1.539,2.629,2.004 c-0.051-0.984-0.059-3.7,1.704-6.368c0.339-0.514,2.779-4.074,7.355-4.568c3.473-0.375,6.017,1.25,6.72,1.713 c2.11,1.392,3.184,3.193,3.646,4.1c0.242-0.516,0.905-1.737,2.299-2.442c2.374-1.202,4.73,0.055,5,0.206 c1.779,0.994,2.422,2.67,2.585,3.144c0.351-2.072,1.44-6.751,5.314-10.866c4.318-4.586,11.26-7.593,18.171-6.19 c6.242,1.267,9.991,5.544,11.642,7.428c3.073,3.506,4.424,6.948,4.758,7.878c0.876,2.434,1.192,4.593,1.309,6.135 c1.693-1.298,4.928-3.384,9.463-4.078c1.915-0.293,5.34-0.774,9.247,0.783c4.128,1.644,6.357,4.591,7.328,5.909 c2.179,2.96,2.982,5.89,3.309,7.564c1.224-0.503,3.889-1.392,7.091-0.745c3.764,0.761,8.207,3.631,9.22,8.545 C488.086,95.297,486.295,100.362,482.901,102.032z"/>
      <path style="fill:#CEEAF0;" d="M479.417,87.3c-4.008-2.292-8.499-0.839-9.9-0.386c-4.323,1.399-4.13,3.413-7.464,3.89 c-3.855,0.552-4.726-2.053-8.666-1.551c-3.623,0.461-3.856,2.826-7.69,3.372c-2.662,0.379-3.055-0.688-7.837-1.535 c-1.98-0.351-6.34-1.086-11.347-0.151c-2.005,0.375-5.016,1.185-8.42,3.146c-1.129,1.811-3.656,5.973-8.747,7.865 c-3.875,1.44-8.366,1.829-12.439,1.56c-2.874-0.19-15.032-1.742-16.312-6.416c-3.848,3.069-7.846,6.22-12.72,7.294 c-2.423,0.534-7.601,1.609-12.879-1.078c-2.521-1.283-4.206-2.992-5.203-4.19c-1.399,0.669-3.958,1.624-7.104,1.292 c-7.515-0.795-11.176-8.183-11.452-8.763c-0.817,1.149-2.344,3.635-2.61,7.091c-0.07,0.903-0.441,7.125,4.534,11.396 c4.792,4.114,10.626,3.055,11.35,2.91c1.759,1.552,9.067,7.637,20.082,7.567c12.433-0.079,20.209-7.94,21.584-9.38 c0.614,0.631,4.796,4.787,11.303,4.432c6.213-0.339,9.844-4.534,10.438-5.243c2.389,1.462,6.064,3.478,10.818,5.167 c4.864,1.728,22.879,8.126,39.281-0.797c2.936-1.597,7.448-4.571,11.813-10.038c6.157,2.114,12.218-0.237,14.166-4.388 c1.457-3.105,0.512-7-1.031-9.521C482.546,90.165,481.49,88.485,479.417,87.3z"/>
      <path style="fill:#FFFFFF;" d="M463.42,104.157c-0.201,0.48-0.803,1.738-3.596,4.221c-2.121,1.886-4.692,4.172-8.707,5.748 c-2.052,0.805-10.865,4.264-15.678,0.355c-2.289-1.859-2.512-4.44-4.796-4.719c-2.057-0.251-3.118,1.729-5.183,1.238 c-1.678-0.399-2.776-2.134-3.172-3.404c-1.073-3.442,1.739-7.545,4.983-8.901c0.583-0.244,1.734-0.766,3.238-0.571 c1.829,0.236,3.006,1.355,3.409,1.776c0.023-0.447,0.199-3.031,2.334-4.736c2.924-2.335,6.659-0.735,6.829-0.659 c1.231,0.552,2.032,1.369,2.476,1.905c0.387-0.829,1.863-3.729,5.151-5.04c4.072-1.624,8.982-0.036,11.536,3.49 C464.237,97.613,464.617,101.301,463.42,104.157z"/>
      <path style="fill:#CEEAF0;" d="M463.117,104.855c0.08,0.075-2.013,3.139-5.043,5.662c-7.406,6.168-19.329,8.692-23.336,4.494 c-1.192-1.249-1.333-2.726-3.146-3.495c-2.183-0.926-3.854,0.42-6.134-0.517c-1.499-0.617-2.421-1.875-2.976-2.878 c0.675,0.42,1.902,1.046,3.529,1.146c3.362,0.206,5.668-2.006,6.08-2.415c1.884,1.561,5.543,4.124,10.773,5.086 c2.499,0.46,9.348,1.319,15.161-2.459C461.014,107.538,463.04,104.783,463.117,104.855z"/>
    </g>
  </g>
</svg>