<?xml version="1.0" encoding="utf-8"?>
<svg viewBox="165 115 140 160" xmlns="http://www.w3.org/2000/svg" >

  <g transform="matrix(1, 0, 0, 1, 0.37936199842, 61.592561650054)" style="transform-origin: 233.159px 85.8684px;">
    <path style="fill:#FFFFFF;" d="M248.785,112.525c-1.309-0.019-2.487-0.325-2.883-0.448c-0.879-0.274-1.713-0.649-2.606-1.051 c-1.976-0.889-3.038-1.699-3.975-2.414c-1.023-0.781-1.907-1.455-3.672-1.994c-0.991-0.302-2.756-0.841-5.02-0.652 c-1.512,0.126-2.308,0.492-3.078,0.845c-0.701,0.322-1.362,0.625-2.466,0.667c-1.835,0.069-2.862-0.657-3.854-1.36 c-0.944-0.669-1.838-1.304-3.395-1.287c-1.279,0.012-1.979,0.441-2.947,1.034c-0.999,0.612-2.242,1.374-4.619,1.953 c-1.147,0.279-2.575,0.627-4.415,0.515c-1.993-0.121-3.101-0.708-4.173-1.275c-0.962-0.509-1.957-1.036-3.616-1.234 c-1.404-0.169-2.161,0.025-3.037,0.248c-0.846,0.216-1.805,0.461-3.525,0.404c-0.884-0.029-3.986-0.235-6.793-1.664 c-3.576-1.821-7.703-6.286-7.283-11.927c0.039-0.52,0.471-5.255,4.578-8.34c0.835-0.627,4.241-3.195,8.777-2.587 c1.697,0.227,3.012,0.824,3.84,1.283c0.189-1.406,1.046-6.485,5.44-10.055c2.876-2.337,5.843-2.87,6.429-2.967 c4.219-0.7,7.514,0.852,8.628,1.439c0.466-1.998,1.537-5.359,4.218-8.523c5.269-6.22,14.294-8.771,22.146-6.562 c1.705,0.48,9.086,2.797,12.648,10.019c1.339,2.715,1.71,5.254,1.813,6.923c0.482-0.693,1.268-1.618,2.473-2.308 c3.931-2.249,9.371-0.299,12.528,2.473c2.945,2.586,5.596,7.373,4.286,10.88c-0.564,1.509-1.797,2.607-1.319,3.462 c0.452,0.808,1.95,0.53,3.688,0.664c3.067,0.236,6.137,1.721,7.866,3.493c2.569,2.632,3.715,7.405,1.697,10.612 c-3.208,5.099-12.797,4.476-15.659,4.163c-1.612-0.176-2.75-0.468-3.664-0.703c-1.405-0.362-2.42-0.623-4.155-0.243 c-1.398,0.305-2.136,0.778-3.358,1.561c-0.486,0.312-1.054,0.675-1.772,1.098c-1.454,0.856-2.632,1.449-3.443,1.829 C252.179,111.868,250.713,112.554,248.785,112.525z"/>
    <path style="fill:#E9F4F6;" d="M278.855,86.539c-2.072-0.361-4.51,0.085-4.945,0.165c-1.752,0.321-3.152,0.866-4.121,1.319 c0.316-0.375,2.369-2.901,1.813-6.429c-0.547-3.475-3.203-5.237-3.791-5.605c-2.666-1.664-5.404-1.212-6.758-0.989 c-3.941,0.65-6.399,3.156-7.253,4.121c-0.289-1.058-0.821-2.512-1.875-3.964c-4.892-6.739-16.032-6.571-22.221-5.112 c-11.545,2.722-17.226,12.615-18.346,14.664c-0.916-0.472-4.011-1.919-7.776-1.009c-5.931,1.433-8.013,7.384-8.148,7.794 c-0.877-0.331-2.12-0.753-3.645-1.119c-2.8-0.671-4.205-1.032-5.937-0.667c-3.315,0.7-5.076,3.057-5.371,3.466 c-1.538,2.129-1.559,4.287-1.555,5.066c0.021,4.153,2.986,8.724,6.078,8.932c1.002,0.068,2.193-0.387,4.576-1.297 c1.048-0.4,1.975-0.763,3.424-1.094c0.606-0.138,1.326-0.229,2.247-0.22c7.973,0.076,11.467,7.387,17.632,5.919 c0.727-0.173,1.979-0.584,3.287-1.315c3.117-1.742,3.673-3.692,6.375-4.228c0.575-0.114,1.491-0.296,2.516,0.034 c2.077,0.668,1.951,2.581,4.059,4.664c0.385,0.381,3.282,3.163,6.831,2.75c0.426-0.05,2.299-0.268,3.729-1.58 c1.061-0.973,0.967-1.712,1.892-2.109c1.243-0.534,2.239,0.447,4.03,0.64c0.762,0.082,1.748,0.018,5.389-1.745 c4.877-2.361,5.125-3.385,7.44-3.89c2.528-0.552,3.3,0.435,6.798,0.817c0,0,0.084,0.009,0.223,0.024 c0.112,0.012,21.401-2.677,21.57-10.185C287.099,90.884,282.64,87.199,278.855,86.539z"/>
    <path style="fill:#CEEAF0;" d="M260.447,99.059c-4.874-2.73-7.075-7.426-7.956-9.752c-0.179,0.212-1.476,1.706-3.243,1.544 c-1.17-0.107-1.971-0.887-2.634-1.534c-0.82-0.799-1.277-1.64-1.526-2.198c-5.919,6.687-16.525,10.613-22.541,4.496 c-5.339,6.983-12.843,10.261-18.688,8.279c-1.266-0.429-3.204-1.36-5.119-3.583c-0.412,0.695-1.063,1.636-2.048,2.559 c-2.82,2.648-7.153,3.869-11.433,3.071c-1.259-0.235-4.231-1.042-7.167-4.607c1.408,5.79,4.075,8.686,5.752,10.107 c7.996,6.778,23.169,5.207,29.035,3.337c0.848-0.27,3.286-1.113,6.417-0.754c2.847,0.326,4.755,1.475,6.028,2.153 c4.718,2.513,10.935,4.022,16.081,3.735c3.653-0.203,8.515-1.409,12.56-3.692c1.091-0.616,2.978-1.672,5.806-2.677 c1.531-0.544,3.181-0.874,5.742-1.098c9.337-0.813,11.746,1.792,16.642-0.104c1.081-0.419,4.869-1.903,6.264-5.659 c1.684-4.534-1.396-8.945-1.782-9.481C278.736,101.109,267.944,103.258,260.447,99.059z"/>
  </g>
</svg>