<?xml version="1.0" encoding="utf-8"?>
<svg viewBox="100 115 110 110" xmlns="http://www.w3.org/2000/svg">

  <g transform="matrix(-1, 0, 0, 1, -171.337972, 104.389232)" style="transform-origin: 323.111px 36.0962px;">
    <path style="fill:#FFFFFF;" d="M291.547,48.009c23.503-5.604,24.861-5.933,27.978-5.863c10.026,0.226,16.294,2.378,16.294,2.378 c2.541,0.872,5.576,2.193,10.079,2.261c2.73,0.041,5.66,0.043,8.007-1.978c2.443-2.104,4.133-6.297,2.417-8.982 c-1.711-2.679-5.95-2.507-6.461-2.479c-3.053,0.164-5.324,1.914-5.531,1.637c-0.193-0.258,2.219-1.247,2.969-3.332 c0.875-2.434-0.725-5.691-2.855-7.363c-2.814-2.209-7.207-2.165-10.917,0.197c0.085-1.124,0.116-3.618-1.28-6.23 c-2.104-3.935-5.884-5.209-6.82-5.508c-5.534-1.768-10.282,1.211-11.279,1.836c-2.881,1.807-4.395,4.208-5.115,5.377 c-1.418,2.303-2.034,4.472-2.325,5.9c-0.963-0.53-4.287-2.2-8.43-1.31c-3.599,0.773-5.737,3.032-6.689,4.066 c-2.269,2.465-3.094,5.111-3.411,6.429c-0.485-0.362-3.615-2.617-7.383-1.724c-0.613,0.145-2.884,0.696-4.448,2.733 c-0.378,0.493-0.647,0.986-0.839,1.453c0,0-0.457,1.113-0.474,2.503c-0.023,1.823,1.188,5.95,3.984,8 C282.032,50.218,285.961,49.341,291.547,48.009z"/>
    <path style="fill:#E9F4F6;" d="M326.884,23.119c3.143,0.878,5.178,2.77,6.128,3.79c0.878-0.458,2.616-1.195,4.839-1.044 c0.879,0.06,3.689,0.251,5.427,2.446c0.24,0.303,1.115,1.437,1.296,3.058c0.189,1.7-0.527,2.662-0.094,3.034 c0.593,0.509,2.024-1.255,4.278-1.689c2.676-0.515,6.589,0.61,7.862,3.611c0.987,2.328-0.077,4.698-0.379,5.319 c2.314-0.596,4.718,0.137,6.174,1.868c1.342,1.594,1.966,4.141,0.939,5.834c-1.434,2.366-5.721,2.196-7.465,2.127 c-2.915-0.116-4.027-1.015-6.358-0.26c-1.289,0.418-2.593,1.225-3.046,1.506c-1.429,0.885-2.056,1.543-2.737,2.065 c-3.829,2.936-9.644,1.775-10.547,1.594c-1.817-0.363-1.249-0.592-3.699-1.189c-1.971-0.48-5.253-1.241-8.833-0.238 c-1.152,0.323-1.938,0.717-2.25,0.865c-4.485,2.126-16.106,3.079-28.127-1.631c-5.602-2.195-9.82-3.422-12.729-7.577 c-0.77-1.1-4.025-5.747-2.056-9.102c1.313-2.237,4.392-2.949,6.638-2.728c3.678,0.362,5.641,3.271,5.902,3.672 c0.396-1.066,1.689-4.117,4.972-6.124c2.411-1.474,4.655-1.625,5.108-1.65c4.849-0.261,8.205,3.087,8.806,3.708 c0.848-1.832,3.801-7.591,10.293-10.265C318.984,23.397,322.578,21.916,326.884,23.119z"/>
    <path style="fill:#CEEAF0;" d="M370.326,47.173c-1.128-1.006-2.679-1.317-3.811-0.971c-1.07,0.327-1.251,1.009-1.867,0.907 c-0.984-0.164-0.762-1.898-2.232-3.597c-0.146-0.169-1.797-2.02-4.306-2.121c-0.785-0.032-1.435,0.117-1.869,0.253 c-0.086,0.816-0.433,3.038-2.234,4.737c-2.608,2.461-6.265,1.935-6.693,1.869c-3.365-0.519-4.293-2.949-6.408-2.39 c-1.748,0.462-1.782,2.299-3.541,2.688c-1.601,0.354-2.385-0.988-4.706-2.099c-5.228-2.503-11.632-0.663-14.249,1.347 c-0.11,0.085-0.469,0.31-0.801,0.632c-1.18,1.143-2.194,3.018-4.523,3.52c-1.489,0.321-2.85-0.063-3.773-0.442 c-1.216,1.564-2.755,2.812-4.596,3.567c0,0-1.705,0.697-3.772,0.789c-3.771,0.168-9.231-2.566-14.357-7.59 c-1.044,0.155-2.782,0.266-4.777-0.331c-3.493-1.046-5.402-3.555-6.009-4.432c1.768,3.965,3.931,6.449,5.326,7.832 c8.662,8.592,24.196,10.953,33.934,6.346c1.965-0.93,3.782-2.162,6.915-2.447c4.256-0.387,5.241,1.543,11.81,2.447 c4.124,0.568,7.404,0.973,9.815-0.957c1.808-1.448,1.615-2.998,3.362-3.503c2.105-0.608,3.528,1.312,6.536,0.877 c1.379-0.2,2.658-0.635,2.658-0.635c2.611-0.915,2.782-1.378,3.995-1.529c1.324-0.164,1.68,0.319,3.464,0.621 c0.507,0.086,5.347,0.904,7.069-1.158C371.655,50.24,371.551,48.265,370.326,47.173z"/>
  </g>
</svg>