<?xml version="1.0" encoding="utf-8"?>
<svg viewBox="165 82 210 210" xmlns="http://www.w3.org/2000/svg" >
  <g transform="matrix(1.307788, 0, 0, 1.364341, 146.520543, 48.386259)" style="">
    <path style="fill:#E9F4F6;" d="M155.604,69.845c-2.211,2.702-5.384,3.452-6.522,3.652c-3.217,0.565-3.985-0.841-7.695-0.261 c-2.444,0.382-4.285,1.333-6,2.217c-2.484,1.282-2.901,1.98-5.348,3.391c0,0-2.691,1.553-6.261,2.739 c-6.384,2.121-15.86,1.202-23.766-2.675c-5.304-2.6-6.311-4.793-9.768-4.459c-3.421,0.331-4.588,2.688-9.629,3.071 c-3.034,0.231-5.342-0.414-6.024-0.621c-1.187-0.359-1.406-0.624-2.163-0.898c-4.447-1.607-7.896,2.799-13.391,2.432 c-2.075-0.138-2.689-0.841-5.206-1.787c-11.145-4.19-17.74,2.565-24.775-1.873c-3.265-2.06-6.046-5.977-5.555-9.567 c0.671-4.902,7.33-8.717,12.64-8.381c4.081,0.258,5.354,2.84,8.243,1.971c2.85-0.858,3.199-3.849,6.344-8.006 c2.791-3.688,6.37-6.426,8.912-7.704c10.044-5.047,19.921,4.657,25.68-0.302c2.873-2.474,0.787-5.208,4.64-9.783 c4.583-5.441,11.274-6.011,11.644-6.037c0.459-0.032,7.632-0.425,12.575,4.601c2.267,2.304,3.297,4.82,4.037,6.684 c2.356,5.931,0.661,8.229,2.432,9.812c3.381,3.023,9.986-4.973,20.086-3.391c7.939,1.244,12.896,7.6,13.57,8.491 c2.347,3.099,2.956,5.755,3.087,6.365C157.684,60.896,158.77,65.977,155.604,69.845z"/>
    <path style="fill:#FFFFFF;" d="M114.57,44.302c2.645,3.161,4.098,6.3,4.904,8.467c5.149-2.758,9.692-3.998,12.715-4.608 c5.348-1.079,10.287-2.076,15.514,0.218c4.271,1.875,6.799,5.099,8.032,6.959c-0.531-1.729-2.96-8.957-10.139-12.719 c-4.483-2.349-8.901-2.36-10.387-2.322c-3.975,0.1-6.852,1.099-7.518,1.354c-2.494,0.957-4.332,2.229-5.508,3.179 c-0.408-2.473-1.567-7.257-5.333-11.762c-1.466-1.754-5.502-6.614-12.55-7.804c-1.479-0.25-6.665-1.053-11.664,1.667 c-4.184,2.276-6.537,5.57-7.44,6.936c-0.691,1.046-1.178,1.985-1.506,2.682c-2.105-1.286-8.694-4.934-17.418-3.855 c-1.6,0.198-12.159,1.68-18.502,11.123c-3.067,4.566-3.886,9.112-4.144,11.623c-1.26-0.692-3.675-1.795-6.847-1.861 c-0.949-0.02-6.441-0.134-10.122,3.847c-3.657,3.955-3.282,9.524-3.147,9.556c0.098,0.023,0.207-2.552,2.142-5.012 c1.813-2.304,4.196-3.194,4.888-3.442c3.636-1.306,6.837-0.323,8.078,0.079c3.46,1.118,5.548,3.327,6.422,4.378 c0.789-1.808,2.157-4.575,4.378-7.589c2.995-4.064,8.252-11.195,16.053-11.88c3.815-0.335,7.251,0.959,10.275,2.097 c2.99,1.125,5.316,2.49,6.92,3.565c2.301-3.277,6.328-7.827,12.624-10.533c2.667-1.146,5.286-2.233,8.61-1.751 C108.988,37.63,112.256,41.536,114.57,44.302z"/>
    <path style="fill:#CEEAF0;" d="M131.333,79.341c3.066-2.053,2.47-2.083,4.606-3.611c5.445-3.895,13.693,1.406,19.056-3.072 c1.949-1.628,3.312-4.376,3.488-7.128c0.132-2.064-0.43-3.736-0.852-4.709c-0.145,1.033-0.653,3.639-2.787,5.923 c-0.389,0.416-3.79,3.933-8.796,3.336c-3.206-0.382-5.286-2.238-6.011-2.953c-1.94,1.476-5.545,3.696-10.261,3.787 c-3.443,0.067-6.029-1.063-8.971-2.262c-3.948-1.609-6.853-3.682-8.728-5.244c-0.768,0.839-5.19,5.508-12.284,5.611 c-8.852,0.129-13.925-6.969-14.334-7.562c-1.152,3.774-4.525,5.791-7.201,5.135c-2.386-0.585-3.485-3.116-3.64-3.488 c-2.556,6.053-8.253,9.851-14.104,9.554c-5.871-0.297-9.495-4.596-10.146-5.396c-1.465,2.247-4.12,3.312-6.516,2.676 c-2.903-0.771-3.93-3.642-4.01-3.876c-0.181,0.351-2.6,5.324-7.99,5.99c-3.839,0.475-6.659-1.547-7.293-2.026 c0.84,2.304,2.003,3.591,2.753,4.277c6.471,5.918,21.1,2.649,25.194,3.941c0.274,0.087,1.671,0.516,3.64,0.821 c0.394,0.061,0.826,0.106,1.358,0.133c5.252,0.267,8.478-1.827,12.748-0.972c0.727,0.146,0.94,0.278,2.079,0.472 c0.655,0.112,2.868,0.463,5.761,0.399c4.808-0.107,5.885-1.237,9.147-1.344c3.224-0.106,5.575,0.755,9.394,2.33 c4.413,1.82,8.974,3.701,13.509,4.347C121.125,85.994,130.243,80.071,131.333,79.341z"/>
  </g>
</svg>