<svg version="1.1" id="Layer_1" xmlns="http://www.w3.org/2000/svg" xmlns:xlink="http://www.w3.org/1999/xlink" x="0px" y="0px"
	 viewBox="1 0.6 1000 1000" enable-background="new 0 0 1013 462" xml:space="preserve" >
<path fill="#4BCAF9" opacity="1.000000" stroke="none" 
	d="
M668.000000,463.000000 
	C445.333344,463.000000 223.166672,463.000000 1.000000,463.000000 
	C1.000000,309.000000 1.000000,155.000000 1.000000,1.000000 
	C338.666656,1.000000 676.333313,1.000000 1014.000000,1.000000 
	C1014.000000,155.000000 1014.000000,309.000000 1014.000000,463.000000 
	C898.833313,463.000000 783.666687,463.000000 668.000000,463.000000 
M178.195953,242.185333 
	C152.066788,238.085342 126.034401,238.326050 100.405334,245.203873 
	C72.397095,252.720169 50.358871,268.256256 37.429466,294.968262 
	C28.920635,312.547424 26.858381,331.376312 28.286827,350.543243 
	C31.162066,389.123352 50.003345,417.332855 86.116409,431.540649 
	C122.348488,445.795227 159.373886,447.591736 195.921707,431.102234 
	C197.016830,430.608154 199.391129,430.567505 199.739929,431.158630 
	C204.889755,439.886902 213.394104,439.128326 221.768723,439.767670 
	C235.969635,440.851807 250.019257,438.423828 264.298615,439.265869 
	C286.718658,440.587921 309.274078,439.659821 331.771912,439.592621 
	C339.690125,439.568970 345.410431,435.923431 348.762299,428.637451 
	C350.292908,425.310364 352.257294,422.165466 353.579132,418.764648 
	C354.893799,415.382355 357.085388,414.540375 360.501740,414.582794 
	C373.665344,414.746124 386.889130,415.398712 399.979309,414.404572 
	C409.942505,413.647888 415.782135,416.475403 418.834290,426.217926 
	C421.995911,436.309875 429.605377,439.981537 440.102234,439.767731 
	C460.258972,439.357178 480.467529,440.372498 500.578522,439.329437 
	C510.022339,438.839600 519.288269,439.544373 528.637146,439.608276 
	C548.134705,439.741547 567.633789,439.655853 587.132263,439.639587 
	C589.628845,439.637482 592.149841,439.712860 594.617554,439.410309 
	C605.025269,438.134216 610.595154,431.853912 610.808472,421.325409 
	C610.846130,419.465240 610.813843,417.603668 610.813843,415.742737 
	C613.620300,417.861877 615.336853,420.075317 616.876465,422.405701 
	C620.241760,427.499481 624.855896,430.373199 631.012329,430.432220 
	C640.006531,430.518433 649.003479,430.611572 657.995911,430.476349 
	C664.079712,430.384918 668.786255,427.573700 672.158386,422.443878 
	C673.919128,419.765442 675.930115,417.251526 677.828003,414.663300 
	C678.902039,418.037933 678.756592,420.991882 678.931030,423.926819 
	C679.350586,430.987000 683.053467,435.883453 689.638794,438.122131 
	C692.870544,439.220764 696.488647,439.562683 699.936096,439.584595 
	C720.267029,439.713989 740.599548,439.580048 760.930786,439.684296 
	C768.448975,439.722809 775.631165,439.131866 781.275024,432.407867 
	C787.222839,439.784698 795.245544,439.683533 803.346741,439.675568 
	C856.509277,439.623260 909.671753,439.655792 962.834290,439.627258 
	C965.489807,439.625854 968.177612,439.520935 970.794861,439.110504 
	C979.708801,437.712585 984.997131,431.724152 985.153687,422.698975 
	C985.306824,413.868927 985.467407,405.024078 985.129028,396.204742 
	C984.806641,387.804535 983.817139,379.430847 983.201965,371.039581 
	C983.134277,370.116241 983.628723,369.159210 983.813660,368.208344 
	C984.286438,365.777374 985.102661,363.344757 985.126587,360.906311 
	C985.257751,347.575348 985.710510,334.213440 984.967285,320.922852 
	C984.612915,314.584625 984.638062,308.436676 984.955139,302.102142 
	C985.679138,287.639709 985.288208,273.115051 985.138428,258.617828 
	C985.049622,250.026306 979.402954,243.893539 970.860535,242.740829 
	C968.396179,242.408264 965.878662,242.367447 963.385437,242.366516 
	C909.556274,242.346619 855.727112,242.379639 801.898071,242.319321 
	C794.264893,242.310776 786.800537,242.416489 782.671875,247.713699 
	C776.393616,245.701080 771.222839,242.737518 765.973938,242.591888 
	C745.657837,242.028290 725.316833,242.349243 704.985107,242.369644 
	C697.630493,242.377014 692.009216,245.226395 687.868652,251.643051 
	C680.734741,262.698425 673.134399,273.453064 665.715698,284.324249 
	C658.782349,294.484253 651.830505,304.631653 644.588989,315.220123 
	C643.209900,313.260468 642.148926,311.797882 641.134155,310.303894 
	C628.028625,291.009308 614.737854,271.836334 601.930664,252.345657 
	C597.303040,245.303223 591.380493,242.260010 583.195312,242.313553 
	C563.530945,242.442200 543.864502,242.250427 524.200439,242.396118 
	C511.070618,242.493393 505.004669,248.806915 505.001678,261.885986 
	C504.992737,300.882935 505.000824,339.879913 504.987366,378.876862 
	C504.986786,380.579865 504.839874,382.282837 504.697906,385.352142 
	C503.227509,382.640656 502.422699,381.227325 501.682343,379.781006 
	C480.356964,338.122070 458.911133,296.523834 437.821899,254.745651 
	C433.448700,246.082275 427.272491,242.172485 417.665436,242.277893 
	C395.836426,242.517441 374.000671,242.539276 352.172424,242.267700 
	C342.545746,242.147949 336.355499,246.088364 331.951233,254.656998 
	C310.708679,295.984894 289.157806,337.154327 267.706268,378.374725 
	C266.519775,380.654602 265.242676,382.887329 264.007782,385.141968 
	C263.071564,383.255280 263.047913,381.665161 263.075378,380.075897 
	C263.251007,369.913635 262.688324,359.667603 263.815033,349.611176 
	C265.155975,337.642700 258.188446,326.614075 260.843933,314.698822 
	C256.488373,295.248474 247.337509,278.666870 231.877792,265.757172 
	C216.482117,252.900986 198.515671,245.958542 178.195953,242.185333 
M228.647705,17.347198 
	C218.175873,16.419630 210.852417,20.448227 205.020248,29.580864 
	C193.012451,48.384010 180.046844,66.575645 167.464035,85.011177 
	C166.462021,86.479271 165.372513,87.887657 163.915085,89.883217 
	C162.455795,87.951019 161.333344,86.589867 160.345123,85.137390 
	C147.414413,66.131897 134.229980,47.290447 121.719475,28.011833 
	C116.666275,20.224884 110.233063,17.185041 101.324799,17.283854 
	C82.498795,17.492674 63.668797,17.315870 44.840569,17.357630 
	C30.135759,17.390244 24.187275,23.360723 24.185255,37.990326 
	C24.178558,86.477409 24.182510,134.964493 24.184114,183.451569 
	C24.184269,188.116928 24.054821,192.787735 24.233273,197.446503 
	C24.580799,206.519287 29.719517,213.671936 38.518185,213.888763 
	C64.302261,214.524170 90.121742,214.485321 115.907265,213.869400 
	C124.457161,213.665161 129.664642,206.464264 129.973953,197.795364 
	C130.064209,195.265762 129.987839,192.730209 129.987839,190.197388 
	C132.625183,192.376083 134.294540,194.639999 135.836777,196.987427 
	C139.380798,202.381760 144.248215,205.469452 150.781860,205.516037 
	C159.609192,205.578995 168.439178,205.622131 177.264648,205.473892 
	C183.355667,205.371597 188.046234,202.543991 191.433731,197.446167 
	C193.208664,194.775070 195.201187,192.248566 197.095459,189.656769 
	C198.002274,192.567078 197.946075,195.029572 198.012360,197.488785 
	C198.253967,206.452591 203.475830,212.597427 212.276154,214.075775 
	C214.885880,214.514160 217.575500,214.620056 220.229340,214.629059 
	C235.058548,214.679398 249.898743,214.301193 264.714386,214.752197 
	C279.572052,215.204498 294.338135,213.509079 309.265747,214.366699 
	C329.360657,215.521179 349.572571,214.552200 369.732849,214.695129 
	C379.049591,214.761169 385.791870,211.265137 389.435822,202.385254 
	C390.696625,199.312820 392.571716,196.491791 393.822876,193.416245 
	C395.007080,190.505188 396.850128,189.555817 399.949860,189.591797 
	C412.778046,189.740662 425.674164,190.451965 438.419067,189.410721 
	C449.396729,188.513885 456.121094,191.445587 459.515503,202.471725 
	C462.225250,211.273804 469.247345,214.819153 478.533905,214.720261 
	C499.859131,214.493118 521.189758,214.793747 542.515625,214.599152 
	C558.864258,214.449966 565.955811,202.205399 558.491394,187.626251 
	C531.627014,135.155807 504.664856,82.734573 478.075195,30.125132 
	C473.493744,21.060514 467.133972,17.128798 457.156799,17.260393 
	C435.666290,17.543846 414.166016,17.572590 392.676636,17.248022 
	C382.634613,17.096352 376.322418,21.186939 371.737488,30.131798 
	C350.089783,72.364761 328.059570,114.401672 306.151154,156.500870 
	C305.526337,157.701569 304.737885,158.817093 304.025726,159.972321 
	C303.760803,159.867294 303.495911,159.762268 303.230988,159.657227 
	C303.230988,157.860626 303.230988,156.064011 303.230957,154.267410 
	C303.230286,114.944550 303.197510,75.621635 303.267792,36.298904 
	C303.277039,31.119690 302.609497,26.338642 298.755310,22.496222 
	C294.685455,18.438793 289.612457,17.331921 284.098938,17.339890 
	C265.937134,17.366140 247.775284,17.348652 228.647705,17.347198 
M556.388855,100.597855 
	C572.451538,100.597855 588.514160,100.597855 604.908875,100.597855 
	C604.908875,103.903542 604.908875,105.886963 604.908936,107.870392 
	C604.909302,137.035156 604.895325,166.199936 604.916748,195.364685 
	C604.925842,207.748962 611.051514,214.418701 623.454407,214.559647 
	C646.116577,214.817184 668.785583,214.806824 691.448120,214.566452 
	C703.881104,214.434601 710.075500,207.787781 710.086365,195.457550 
	C710.112244,166.126144 710.095276,136.794708 710.095703,107.463295 
	C710.095703,105.514061 710.095703,103.564835 710.095703,101.389915 
	C728.326233,99.908821 746.101562,102.713173 764.033936,99.504250 
	C764.033936,101.582329 764.033875,103.564301 764.033875,105.546272 
	C764.034241,135.544312 764.017090,165.542374 764.043823,195.540390 
	C764.054077,207.054733 770.089172,214.252899 781.393616,214.455383 
	C805.050354,214.879166 828.725098,214.882324 852.381836,214.462952 
	C863.818298,214.260223 869.784424,207.202240 869.853333,195.629639 
	C869.905945,186.797195 869.720215,177.961258 869.899231,169.132126 
	C870.172485,155.655258 867.058960,157.959686 881.945862,157.609482 
	C885.300720,157.530563 886.212646,158.887039 886.172302,162.033157 
	C886.037720,172.530731 886.119812,183.031128 886.125549,193.530441 
	C886.133728,208.345596 892.288513,214.613953 906.994812,214.641006 
	C928.326660,214.680222 949.658752,214.681229 970.990601,214.640564 
	C985.392944,214.613098 991.693054,208.274902 991.715332,193.840073 
	C991.745422,174.341385 991.723572,154.842636 991.723083,135.343903 
	C991.722290,102.346054 991.762390,69.348122 991.697144,36.350407 
	C991.674133,24.706860 985.875488,17.727701 974.874695,17.551777 
	C950.884033,17.168116 926.878418,17.178005 902.887878,17.572313 
	C892.216797,17.747704 886.212952,24.718723 886.144409,35.374119 
	C886.073669,46.372955 886.139343,57.372616 886.110657,68.371826 
	C886.106018,70.128532 885.919373,71.884750 885.814819,73.675751 
	C880.320740,73.675751 875.400574,73.675751 869.865662,73.675751 
	C869.865662,71.581581 869.865662,69.798515 869.865662,68.015450 
	C869.865540,58.016102 869.871887,48.016747 869.863831,38.017403 
	C869.852051,23.368462 863.921448,17.388874 849.229553,17.359421 
	C828.397644,17.317661 807.565430,17.397198 786.733765,17.320786 
	C779.794800,17.295334 772.973755,17.355824 767.692627,23.479607 
	C762.280884,17.560658 755.516113,17.310045 748.551575,17.316360 
	C687.722229,17.371508 626.892822,17.345655 566.063477,17.358072 
	C563.734070,17.358549 561.386963,17.347477 559.078308,17.608564 
	C549.717102,18.667238 543.943359,24.908682 543.891968,34.239418 
	C543.801147,50.737831 543.813782,67.237312 543.884521,83.735909 
	C543.921814,92.421417 547.280762,97.023712 556.388855,100.597855 
z"/>
<path fill="#0254A0" opacity="1.000000" stroke="none" 
	d="
M178.620285,242.272980 
	C198.515671,245.958542 216.482117,252.900986 231.877792,265.757172 
	C247.337509,278.666870 256.488373,295.248474 260.843933,314.698822 
	C258.188446,326.614075 265.155975,337.642700 263.815033,349.611176 
	C262.688324,359.667603 263.251007,369.913635 263.075378,380.075897 
	C263.047913,381.665161 263.071564,383.255280 264.007782,385.141968 
	C265.242676,382.887329 266.519775,380.654602 267.706268,378.374725 
	C289.157806,337.154327 310.708679,295.984894 331.951233,254.656998 
	C336.355499,246.088364 342.545746,242.147949 352.172424,242.267700 
	C374.000671,242.539276 395.836426,242.517441 417.665436,242.277893 
	C427.272491,242.172485 433.448700,246.082275 437.821899,254.745651 
	C458.911133,296.523834 480.356964,338.122070 501.682343,379.781006 
	C502.422699,381.227325 503.227509,382.640656 504.697906,385.352142 
	C504.839874,382.282837 504.986786,380.579865 504.987366,378.876862 
	C505.000824,339.879913 504.992737,300.882935 505.001678,261.885986 
	C505.004669,248.806915 511.070618,242.493393 524.200439,242.396118 
	C543.864502,242.250427 563.530945,242.442200 583.195312,242.313553 
	C591.380493,242.260010 597.303040,245.303223 601.930664,252.345657 
	C614.737854,271.836334 628.028625,291.009308 641.134155,310.303894 
	C642.148926,311.797882 643.209900,313.260468 644.588989,315.220123 
	C651.830505,304.631653 658.782349,294.484253 665.715698,284.324249 
	C673.134399,273.453064 680.734741,262.698425 687.868652,251.643051 
	C692.009216,245.226395 697.630493,242.377014 704.985107,242.369644 
	C725.316833,242.349243 745.657837,242.028290 765.973938,242.591888 
	C771.222839,242.737518 776.393616,245.701080 782.671875,247.713699 
	C786.800537,242.416489 794.264893,242.310776 801.898071,242.319321 
	C855.727112,242.379639 909.556274,242.346619 963.385437,242.366516 
	C965.878662,242.367447 968.396179,242.408264 970.860535,242.740829 
	C979.402954,243.893539 985.049622,250.026306 985.138428,258.617828 
	C985.288208,273.115051 985.679138,287.639709 984.955139,302.102142 
	C984.638062,308.436676 984.612915,314.584625 984.967285,320.922852 
	C985.710510,334.213440 985.257751,347.575348 985.126587,360.906311 
	C985.102661,363.344757 984.286438,365.777374 983.813660,368.208344 
	C983.628723,369.159210 983.134277,370.116241 983.201965,371.039581 
	C983.817139,379.430847 984.806641,387.804535 985.129028,396.204742 
	C985.467407,405.024078 985.306824,413.868927 985.153687,422.698975 
	C984.997131,431.724152 979.708801,437.712585 970.794861,439.110504 
	C968.177612,439.520935 965.489807,439.625854 962.834290,439.627258 
	C909.671753,439.655792 856.509277,439.623260 803.346741,439.675568 
	C795.245544,439.683533 787.222839,439.784698 781.275024,432.407867 
	C775.631165,439.131866 768.448975,439.722809 760.930786,439.684296 
	C740.599548,439.580048 720.267029,439.713989 699.936096,439.584595 
	C696.488647,439.562683 692.870544,439.220764 689.638794,438.122131 
	C683.053467,435.883453 679.350586,430.987000 678.931030,423.926819 
	C678.756592,420.991882 678.902039,418.037933 677.828003,414.663300 
	C675.930115,417.251526 673.919128,419.765442 672.158386,422.443878 
	C668.786255,427.573700 664.079712,430.384918 657.995911,430.476349 
	C649.003479,430.611572 640.006531,430.518433 631.012329,430.432220 
	C624.855896,430.373199 620.241760,427.499481 616.876465,422.405701 
	C615.336853,420.075317 613.620300,417.861877 610.813843,415.742737 
	C610.813843,417.603668 610.846130,419.465240 610.808472,421.325409 
	C610.595154,431.853912 605.025269,438.134216 594.617554,439.410309 
	C592.149841,439.712860 589.628845,439.637482 587.132263,439.639587 
	C567.633789,439.655853 548.134705,439.741547 528.637146,439.608276 
	C519.288269,439.544373 510.022339,438.839600 500.578522,439.329437 
	C480.467529,440.372498 460.258972,439.357178 440.102234,439.767731 
	C429.605377,439.981537 421.995911,436.309875 418.834290,426.217926 
	C415.782135,416.475403 409.942505,413.647888 399.979309,414.404572 
	C386.889130,415.398712 373.665344,414.746124 360.501740,414.582794 
	C357.085388,414.540375 354.893799,415.382355 353.579132,418.764648 
	C352.257294,422.165466 350.292908,425.310364 348.762299,428.637451 
	C345.410431,435.923431 339.690125,439.568970 331.771912,439.592621 
	C309.274078,439.659821 286.718658,440.587921 264.298615,439.265869 
	C250.019257,438.423828 235.969635,440.851807 221.768723,439.767670 
	C213.394104,439.128326 204.889755,439.886902 199.739929,431.158630 
	C199.391129,430.567505 197.016830,430.608154 195.921707,431.102234 
	C159.373886,447.591736 122.348488,445.795227 86.116409,431.540649 
	C50.003345,417.332855 31.162066,389.123352 28.286827,350.543243 
	C26.858381,331.376312 28.920635,312.547424 37.429466,294.968262 
	C50.358871,268.256256 72.397095,252.720169 100.405334,245.203873 
	C126.034401,238.326050 152.066788,238.085342 178.620285,242.272980 
M640.920105,339.508636 
	C623.689453,314.154175 606.412476,288.830841 589.296082,263.399536 
	C587.487976,260.713074 585.634460,259.658203 582.418823,259.767944 
	C575.260986,260.012299 568.089111,259.844208 560.922913,259.844208 
	C547.946472,259.844208 534.970032,259.844208 521.841675,259.844208 
	C521.841675,314.753235 521.841675,369.271576 521.841675,423.778778 
	C546.198975,423.778778 570.147705,423.778778 594.872009,423.778778 
	C594.872009,404.139374 594.872009,384.709137 594.872009,363.978516 
	C606.694885,380.732361 617.687866,396.199615 628.521667,411.777527 
	C630.216125,414.213959 631.944458,415.348572 634.998657,415.229828 
	C641.322021,414.984009 647.667908,414.988770 653.991882,415.226166 
	C657.152344,415.344849 659.146118,414.434357 660.970825,411.735107 
	C666.567383,403.456390 672.476196,395.388519 678.276428,387.247803 
	C683.540405,379.859711 688.821289,372.483673 694.094727,365.102325 
	C694.408203,365.201782 694.721680,365.301208 695.035156,365.400665 
	C695.035156,384.764526 695.035156,404.128387 695.035156,423.638000 
	C719.586914,423.638000 743.615479,423.638000 767.522156,423.638000 
	C767.522156,368.875275 767.522156,314.474579 767.522156,259.845917 
	C746.670593,259.845917 726.178162,259.769928 705.688782,259.988098 
	C704.023010,260.005829 701.853760,261.671906 700.804504,263.186005 
	C688.380859,281.113525 676.132385,299.162384 663.823975,317.169861 
	C657.548950,326.350250 651.246033,335.511536 644.747620,344.984863 
	C643.382935,343.054565 642.338623,341.577332 640.920105,339.508636 
M201.500092,339.165771 
	C182.895416,339.165771 164.290741,339.165771 145.475739,339.165771 
	C145.475739,348.372711 145.475739,356.951691 145.475739,366.045807 
	C151.754654,366.045807 157.802216,366.045807 164.634796,366.045807 
	C163.687836,367.386932 163.314423,368.062286 162.806488,368.613678 
	C150.530472,381.940460 126.909538,377.026764 119.963516,359.456116 
	C115.444756,348.025421 115.623062,336.278992 119.867073,324.748047 
	C122.820694,316.723083 128.615265,311.294769 136.890244,309.190430 
	C152.413879,305.242767 168.773453,310.163177 173.350525,329.066864 
	C173.414215,329.329926 173.807663,329.513153 174.328262,329.992401 
	C197.672821,326.631805 221.297974,323.230774 245.069962,319.808624 
	C244.790100,318.325012 244.661087,317.337158 244.414734,316.379517 
	C237.816437,290.731873 221.402191,273.753387 196.885193,265.163208 
	C163.656006,253.520477 129.865402,253.499619 96.504356,264.600220 
	C72.709480,272.517822 55.989384,288.490173 48.364376,312.856873 
	C43.981308,326.863556 43.164398,341.290222 45.065521,355.838715 
	C48.171917,379.610657 58.654682,399.174194 79.750175,411.331757 
	C109.258438,428.337708 141.160751,431.286987 173.748871,422.972015 
	C185.051651,420.088043 195.438080,413.612640 206.541473,408.644073 
	C208.186981,412.105835 210.208969,416.653198 212.524506,421.045837 
	C213.189728,422.307800 214.682495,423.982422 215.829330,424.008728 
	C225.936569,424.240784 236.051376,424.143280 246.781265,424.143280 
	C246.781265,395.587006 246.781265,367.653046 246.781265,339.165771 
	C232.079147,339.165771 217.289627,339.165771 201.500092,339.165771 
M795.022461,359.500000 
	C795.022461,380.915619 795.022461,402.331207 795.022461,423.691986 
	C853.434937,423.691986 911.169678,423.691986 968.993347,423.691986 
	C968.993347,409.119263 968.993347,394.853973 968.993347,379.900879 
	C935.274292,379.900879 901.761169,379.900879 868.350342,379.900879 
	C868.350342,373.610138 868.350342,368.012238 868.350342,361.936096 
	C902.026794,361.936096 935.427429,361.936096 968.872192,361.936096 
	C968.872192,348.070801 968.872192,334.694275 968.872192,320.818787 
	C935.150208,320.818787 901.759644,320.818787 868.297974,320.818787 
	C868.297974,314.718170 868.297974,309.122620 868.297974,302.865173 
	C902.029602,302.865173 935.540649,302.865173 968.885986,302.865173 
	C968.885986,288.106110 968.885986,274.014069 968.885986,259.778931 
	C910.828796,259.778931 853.092773,259.778931 795.022461,259.778931 
	C795.022461,292.894775 795.022461,325.697388 795.022461,359.500000 
M441.695435,298.875549 
	C435.697113,287.168945 429.593811,275.514160 423.774078,263.719452 
	C422.313904,260.760162 420.631622,259.734619 417.309937,259.760406 
	C395.820770,259.926941 374.329163,259.915680 352.839691,259.770325 
	C349.611267,259.748505 347.812347,260.608978 346.274658,263.587219 
	C324.530365,305.702148 302.652405,347.748047 280.803223,389.808807 
	C274.999969,400.980316 269.184448,412.145447 263.371521,423.319336 
	C264.035400,423.679413 264.298981,423.947418 264.562988,423.947784 
	C286.719360,423.977661 308.876099,424.035095 331.031342,423.880096 
	C332.391602,423.870605 334.305756,422.479034 334.998322,421.206085 
	C338.417542,414.921600 341.352386,408.371277 344.838867,402.127319 
	C345.657593,400.661102 347.945831,399.143585 349.570282,399.130157 
	C372.891663,398.937378 396.215485,399.054932 419.537750,398.923950 
	C422.324860,398.908264 423.714508,399.834381 424.838501,402.254608 
	C428.198029,409.488220 431.760681,416.627533 435.149200,423.608398 
	C458.597870,423.608398 481.777435,423.608398 505.546112,423.608398 
	C484.177917,381.889130 463.091095,340.719238 441.695435,298.875549 
z"/>
<path fill="#0355A0" opacity="1.000000" stroke="none" 
	d="
M229.130585,17.347580 
	C247.775284,17.348652 265.937134,17.366140 284.098938,17.339890 
	C289.612457,17.331921 294.685455,18.438793 298.755310,22.496222 
	C302.609497,26.338642 303.277039,31.119690 303.267792,36.298904 
	C303.197510,75.621635 303.230286,114.944550 303.230957,154.267410 
	C303.230988,156.064011 303.230988,157.860626 303.230988,159.657227 
	C303.495911,159.762268 303.760803,159.867294 304.025726,159.972321 
	C304.737885,158.817093 305.526337,157.701569 306.151154,156.500870 
	C328.059570,114.401672 350.089783,72.364761 371.737488,30.131798 
	C376.322418,21.186939 382.634613,17.096352 392.676636,17.248022 
	C414.166016,17.572590 435.666290,17.543846 457.156799,17.260393 
	C467.133972,17.128798 473.493744,21.060514 478.075195,30.125132 
	C504.664856,82.734573 531.627014,135.155807 558.491394,187.626251 
	C565.955811,202.205399 558.864258,214.449966 542.515625,214.599152 
	C521.189758,214.793747 499.859131,214.493118 478.533905,214.720261 
	C469.247345,214.819153 462.225250,211.273804 459.515503,202.471725 
	C456.121094,191.445587 449.396729,188.513885 438.419067,189.410721 
	C425.674164,190.451965 412.778046,189.740662 399.949860,189.591797 
	C396.850128,189.555817 395.007080,190.505188 393.822876,193.416245 
	C392.571716,196.491791 390.696625,199.312820 389.435822,202.385254 
	C385.791870,211.265137 379.049591,214.761169 369.732849,214.695129 
	C349.572571,214.552200 329.360657,215.521179 309.265747,214.366699 
	C294.338135,213.509079 279.572052,215.204498 264.714386,214.752197 
	C249.898743,214.301193 235.058548,214.679398 220.229340,214.629059 
	C217.575500,214.620056 214.885880,214.514160 212.276154,214.075775 
	C203.475830,212.597427 198.253967,206.452591 198.012360,197.488785 
	C197.946075,195.029572 198.002274,192.567078 197.095459,189.656769 
	C195.201187,192.248566 193.208664,194.775070 191.433731,197.446167 
	C188.046234,202.543991 183.355667,205.371597 177.264648,205.473892 
	C168.439178,205.622131 159.609192,205.578995 150.781860,205.516037 
	C144.248215,205.469452 139.380798,202.381760 135.836777,196.987427 
	C134.294540,194.639999 132.625183,192.376083 129.987839,190.197388 
	C129.987839,192.730209 130.064209,195.265762 129.973953,197.795364 
	C129.664642,206.464264 124.457161,213.665161 115.907265,213.869400 
	C90.121742,214.485321 64.302261,214.524170 38.518185,213.888763 
	C29.719517,213.671936 24.580799,206.519287 24.233273,197.446503 
	C24.054821,192.787735 24.184269,188.116928 24.184114,183.451569 
	C24.182510,134.964493 24.178558,86.477409 24.185255,37.990326 
	C24.187275,23.360723 30.135759,17.390244 44.840569,17.357630 
	C63.668797,17.315870 82.498795,17.492674 101.324799,17.283854 
	C110.233063,17.185041 116.666275,20.224884 121.719475,28.011833 
	C134.229980,47.290447 147.414413,66.131897 160.345123,85.137390 
	C161.333344,86.589867 162.455795,87.951019 163.915085,89.883217 
	C165.372513,87.887657 166.462021,86.479271 167.464035,85.011177 
	C180.046844,66.575645 193.012451,48.384010 205.020248,29.580864 
	C210.852417,20.448227 218.175873,16.419630 229.130585,17.347580 
M193.079315,77.582382 
	C183.536774,91.560188 173.994232,105.538002 164.171036,119.926918 
	C162.939056,118.281921 162.022919,117.155334 161.209793,115.958740 
	C143.701645,90.193916 126.187668,64.432983 108.735817,38.630058 
	C107.175697,36.323406 105.773430,34.725494 102.505287,34.756752 
	C83.010712,34.943180 63.513474,34.845886 44.017147,34.864895 
	C43.078175,34.865810 42.139397,35.065628 41.231239,35.169315 
	C41.231239,89.894943 41.231239,144.285294 41.231239,198.616806 
	C65.585045,198.616806 89.630760,198.616806 114.056389,198.616806 
	C114.056389,178.850540 114.056389,159.461182 114.056389,138.988007 
	C115.752441,141.276718 116.830276,142.672775 117.846878,144.112076 
	C127.932365,158.390961 137.925598,172.736649 148.196289,186.880920 
	C149.397156,188.534683 152.064560,189.877594 154.135880,190.005264 
	C160.610062,190.404358 167.129807,189.995987 173.620789,190.221069 
	C176.624756,190.325226 178.440109,189.349014 180.163544,186.870056 
	C188.435577,174.971802 196.910507,163.214523 205.324203,151.414886 
	C207.983322,147.685654 210.676025,143.980362 213.353363,140.264099 
	C213.679718,140.352310 214.006058,140.440536 214.332413,140.528748 
	C214.332413,159.880859 214.332413,179.232986 214.332413,198.601105 
	C238.979507,198.601105 263.009705,198.601105 286.971252,198.601105 
	C286.971252,143.932220 286.971252,89.658936 286.971252,35.335880 
	C286.313019,35.144360 285.855408,34.895306 285.397461,34.894653 
	C265.234833,34.865967 245.071304,34.780178 224.911057,34.996574 
	C223.259644,35.014297 221.137833,36.763374 220.068604,38.291527 
	C211.097031,51.113754 202.320435,64.072411 193.079315,77.582382 
M469.459625,50.024452 
	C467.484772,46.171318 465.310150,42.404213 463.601471,38.436466 
	C462.347198,35.523949 460.532745,34.757782 457.471680,34.776867 
	C435.982971,34.910870 414.492340,34.930099 393.004059,34.764481 
	C389.542297,34.737797 387.738586,35.799362 386.136108,38.896626 
	C359.313293,90.739037 332.360565,142.514221 305.442688,194.307449 
	C304.719910,195.698151 304.063141,197.123154 303.149292,198.995941 
	C326.239838,198.995941 348.554962,199.053177 370.868011,198.865204 
	C372.331360,198.852875 374.364929,197.287537 375.132599,195.893524 
	C378.502808,189.773590 381.645477,183.515732 384.570984,177.169754 
	C385.738251,174.637695 387.207733,173.920898 389.905334,173.933670 
	C413.060242,174.043335 436.216309,174.062012 459.370850,173.916763 
	C462.380493,173.897888 463.825195,174.941803 465.000519,177.543381 
	C467.737396,183.601395 470.887177,189.474014 473.581665,195.549484 
	C474.768127,198.224670 476.312622,199.082977 479.215271,199.064926 
	C499.871124,198.936554 520.528137,198.996506 541.184753,198.996521 
	C542.422363,198.996521 543.659973,198.996521 545.730469,198.996521 
	C520.134949,149.000534 494.969116,99.843727 469.459625,50.024452 
z"/>
<path fill="#0254A1" opacity="1.000000" stroke="none" 
	d="
M555.998535,100.452286 
	C547.280762,97.023712 543.921814,92.421417 543.884521,83.735909 
	C543.813782,67.237312 543.801147,50.737831 543.891968,34.239418 
	C543.943359,24.908682 549.717102,18.667238 559.078308,17.608564 
	C561.386963,17.347477 563.734070,17.358549 566.063477,17.358072 
	C626.892822,17.345655 687.722229,17.371508 748.551575,17.316360 
	C755.516113,17.310045 762.280884,17.560658 767.692627,23.479607 
	C772.973755,17.355824 779.794800,17.295334 786.733765,17.320786 
	C807.565430,17.397198 828.397644,17.317661 849.229553,17.359421 
	C863.921448,17.388874 869.852051,23.368462 869.863831,38.017403 
	C869.871887,48.016747 869.865540,58.016102 869.865662,68.015450 
	C869.865662,69.798515 869.865662,71.581581 869.865662,73.675751 
	C875.400574,73.675751 880.320740,73.675751 885.814819,73.675751 
	C885.919373,71.884750 886.106018,70.128532 886.110657,68.371826 
	C886.139343,57.372616 886.073669,46.372955 886.144409,35.374119 
	C886.212952,24.718723 892.216797,17.747704 902.887878,17.572313 
	C926.878418,17.178005 950.884033,17.168116 974.874695,17.551777 
	C985.875488,17.727701 991.674133,24.706860 991.697144,36.350407 
	C991.762390,69.348122 991.722290,102.346054 991.723083,135.343903 
	C991.723572,154.842636 991.745422,174.341385 991.715332,193.840073 
	C991.693054,208.274902 985.392944,214.613098 970.990601,214.640564 
	C949.658752,214.681229 928.326660,214.680222 906.994812,214.641006 
	C892.288513,214.613953 886.133728,208.345596 886.125549,193.530441 
	C886.119812,183.031128 886.037720,172.530731 886.172302,162.033157 
	C886.212646,158.887039 885.300720,157.530563 881.945862,157.609482 
	C867.058960,157.959686 870.172485,155.655258 869.899231,169.132126 
	C869.720215,177.961258 869.905945,186.797195 869.853333,195.629639 
	C869.784424,207.202240 863.818298,214.260223 852.381836,214.462952 
	C828.725098,214.882324 805.050354,214.879166 781.393616,214.455383 
	C770.089172,214.252899 764.054077,207.054733 764.043823,195.540390 
	C764.017090,165.542374 764.034241,135.544312 764.033875,105.546272 
	C764.033875,103.564301 764.033936,101.582329 764.033936,99.504250 
	C746.101562,102.713173 728.326233,99.908821 710.095703,101.389915 
	C710.095703,103.564835 710.095703,105.514061 710.095703,107.463295 
	C710.095276,136.794708 710.112244,166.126144 710.086365,195.457550 
	C710.075500,207.787781 703.881104,214.434601 691.448120,214.566452 
	C668.785583,214.806824 646.116577,214.817184 623.454407,214.559647 
	C611.051514,214.418701 604.925842,207.748962 604.916748,195.364685 
	C604.895325,166.199936 604.909302,137.035156 604.908936,107.870392 
	C604.908875,105.886963 604.908875,103.903542 604.908875,100.597855 
	C588.514160,100.597855 572.451538,100.597855 555.998535,100.452286 
M780.427734,113.499748 
	C780.427734,141.912415 780.427734,170.325089 780.427734,198.754425 
	C805.156250,198.754425 829.105469,198.754425 853.610352,198.754425 
	C853.610352,179.828415 853.610352,161.103455 853.610352,142.223663 
	C870.096619,142.223663 886.025574,142.223663 902.496399,142.223663 
	C902.496399,161.174911 902.496399,179.913116 902.496399,198.681305 
	C926.961670,198.681305 950.883484,198.681305 974.810059,198.681305 
	C974.810059,143.873505 974.810059,89.350410 974.810059,34.868725 
	C950.517151,34.868725 926.627930,34.868725 902.352600,34.868725 
	C902.352600,53.709114 902.352600,72.143173 902.352600,90.688156 
	C885.907776,90.688156 869.856140,90.688156 853.423096,90.688156 
	C853.423096,71.902252 853.423096,53.461113 853.423096,34.793808 
	C828.990784,34.793808 804.944092,34.793808 780.427795,34.793808 
	C780.427795,60.917408 780.427795,86.708572 780.427734,113.499748 
M737.498535,85.961456 
	C743.264893,85.961456 749.031189,85.961456 754.843506,85.961456 
	C754.843506,68.686798 754.843506,52.098335 754.843506,35.394928 
	C689.799500,35.394928 624.982544,35.394928 560.305176,35.394928 
	C560.305176,52.380871 560.305176,68.972031 560.305176,86.043686 
	C580.643250,86.043686 600.704651,86.043686 621.204224,86.043686 
	C621.204224,123.916588 621.204224,161.306992 621.204224,198.736206 
	C645.661560,198.736206 669.669556,198.736206 694.125977,198.736206 
	C694.125977,160.940125 694.125977,123.561066 694.125977,85.961456 
	C708.551453,85.961456 722.525391,85.961456 737.498535,85.961456 
z"/>
<path fill="#FEDA01" opacity="1.000000" stroke="none" 
	d="
M641.107178,339.804352 
	C642.338623,341.577332 643.382935,343.054565 644.747620,344.984863 
	C651.246033,335.511536 657.548950,326.350250 663.823975,317.169861 
	C676.132385,299.162384 688.380859,281.113525 700.804504,263.186005 
	C701.853760,261.671906 704.023010,260.005829 705.688782,259.988098 
	C726.178162,259.769928 746.670593,259.845917 767.522156,259.845917 
	C767.522156,314.474579 767.522156,368.875275 767.522156,423.638000 
	C743.615479,423.638000 719.586914,423.638000 695.035156,423.638000 
	C695.035156,404.128387 695.035156,384.764526 695.035156,365.400665 
	C694.721680,365.301208 694.408203,365.201782 694.094727,365.102325 
	C688.821289,372.483673 683.540405,379.859711 678.276428,387.247803 
	C672.476196,395.388519 666.567383,403.456390 660.970825,411.735107 
	C659.146118,414.434357 657.152344,415.344849 653.991882,415.226166 
	C647.667908,414.988770 641.322021,414.984009 634.998657,415.229828 
	C631.944458,415.348572 630.216125,414.213959 628.521667,411.777527 
	C617.687866,396.199615 606.694885,380.732361 594.872009,363.978516 
	C594.872009,384.709137 594.872009,404.139374 594.872009,423.778778 
	C570.147705,423.778778 546.198975,423.778778 521.841675,423.778778 
	C521.841675,369.271576 521.841675,314.753235 521.841675,259.844208 
	C534.970032,259.844208 547.946472,259.844208 560.922913,259.844208 
	C568.089111,259.844208 575.260986,260.012299 582.418823,259.767944 
	C585.634460,259.658203 587.487976,260.713074 589.296082,263.399536 
	C606.412476,288.830841 623.689453,314.154175 641.107178,339.804352 
z"/>
<path fill="#FEDA01" opacity="1.000000" stroke="none" 
	d="
M202.000092,339.165771 
	C217.289627,339.165771 232.079147,339.165771 246.781265,339.165771 
	C246.781265,367.653046 246.781265,395.587006 246.781265,424.143280 
	C236.051376,424.143280 225.936569,424.240784 215.829330,424.008728 
	C214.682495,423.982422 213.189728,422.307800 212.524506,421.045837 
	C210.208969,416.653198 208.186981,412.105835 206.541473,408.644073 
	C195.438080,413.612640 185.051651,420.088043 173.748871,422.972015 
	C141.160751,431.286987 109.258438,428.337708 79.750175,411.331757 
	C58.654682,399.174194 48.171917,379.610657 45.065521,355.838715 
	C43.164398,341.290222 43.981308,326.863556 48.364376,312.856873 
	C55.989384,288.490173 72.709480,272.517822 96.504356,264.600220 
	C129.865402,253.499619 163.656006,253.520477 196.885193,265.163208 
	C221.402191,273.753387 237.816437,290.731873 244.414734,316.379517 
	C244.661087,317.337158 244.790100,318.325012 245.069962,319.808624 
	C221.297974,323.230774 197.672821,326.631805 174.328262,329.992401 
	C173.807663,329.513153 173.414215,329.329926 173.350525,329.066864 
	C168.773453,310.163177 152.413879,305.242767 136.890244,309.190430 
	C128.615265,311.294769 122.820694,316.723083 119.867073,324.748047 
	C115.623062,336.278992 115.444756,348.025421 119.963516,359.456116 
	C126.909538,377.026764 150.530472,381.940460 162.806488,368.613678 
	C163.314423,368.062286 163.687836,367.386932 164.634796,366.045807 
	C157.802216,366.045807 151.754654,366.045807 145.475739,366.045807 
	C145.475739,356.951691 145.475739,348.372711 145.475739,339.165771 
	C164.290741,339.165771 182.895416,339.165771 202.000092,339.165771 
z"/>
<path fill="#FEDA01" opacity="1.000000" stroke="none" 
	d="
M795.022461,359.000000 
	C795.022461,325.697388 795.022461,292.894775 795.022461,259.778931 
	C853.092773,259.778931 910.828796,259.778931 968.885986,259.778931 
	C968.885986,274.014069 968.885986,288.106110 968.885986,302.865173 
	C935.540649,302.865173 902.029602,302.865173 868.297974,302.865173 
	C868.297974,309.122620 868.297974,314.718170 868.297974,320.818787 
	C901.759644,320.818787 935.150208,320.818787 968.872192,320.818787 
	C968.872192,334.694275 968.872192,348.070801 968.872192,361.936096 
	C935.427429,361.936096 902.026794,361.936096 868.350342,361.936096 
	C868.350342,368.012238 868.350342,373.610138 868.350342,379.900879 
	C901.761169,379.900879 935.274292,379.900879 968.993347,379.900879 
	C968.993347,394.853973 968.993347,409.119263 968.993347,423.691986 
	C911.169678,423.691986 853.434937,423.691986 795.022461,423.691986 
	C795.022461,402.331207 795.022461,380.915619 795.022461,359.000000 
z"/>
<path fill="#FEDB01" opacity="1.000000" stroke="none" 
	d="
M441.849854,299.212463 
	C463.091095,340.719238 484.177917,381.889130 505.546112,423.608398 
	C481.777435,423.608398 458.597870,423.608398 435.149200,423.608398 
	C431.760681,416.627533 428.198029,409.488220 424.838501,402.254608 
	C423.714508,399.834381 422.324860,398.908264 419.537750,398.923950 
	C396.215485,399.054932 372.891663,398.937378 349.570282,399.130157 
	C347.945831,399.143585 345.657593,400.661102 344.838867,402.127319 
	C341.352386,408.371277 338.417542,414.921600 334.998322,421.206085 
	C334.305756,422.479034 332.391602,423.870605 331.031342,423.880096 
	C308.876099,424.035095 286.719360,423.977661 264.562988,423.947784 
	C264.298981,423.947418 264.035400,423.679413 263.371521,423.319336 
	C269.184448,412.145447 274.999969,400.980316 280.803223,389.808807 
	C302.652405,347.748047 324.530365,305.702148 346.274658,263.587219 
	C347.812347,260.608978 349.611267,259.748505 352.839691,259.770325 
	C374.329163,259.915680 395.820770,259.926941 417.309937,259.760406 
	C420.631622,259.734619 422.313904,260.760162 423.774078,263.719452 
	C429.593811,275.514160 435.697113,287.168945 441.849854,299.212463 
M386.134857,320.506866 
	C385.403564,320.449310 384.125458,320.139893 384.019318,320.370331 
	C378.345642,332.688293 372.770691,345.051758 367.007294,357.804993 
	C378.989960,357.804993 390.357056,357.804993 402.375427,357.804993 
	C396.968903,345.355042 391.715210,333.256958 386.134857,320.506866 
z"/>
<path fill="#FEDB01" opacity="1.000000" stroke="none" 
	d="
M193.282227,77.286179 
	C202.320435,64.072411 211.097031,51.113754 220.068604,38.291527 
	C221.137833,36.763374 223.259644,35.014297 224.911057,34.996574 
	C245.071304,34.780178 265.234833,34.865967 285.397461,34.894653 
	C285.855408,34.895306 286.313019,35.144360 286.971252,35.335880 
	C286.971252,89.658936 286.971252,143.932220 286.971252,198.601105 
	C263.009705,198.601105 238.979507,198.601105 214.332413,198.601105 
	C214.332413,179.232986 214.332413,159.880859 214.332413,140.528748 
	C214.006058,140.440536 213.679718,140.352310 213.353363,140.264099 
	C210.676025,143.980362 207.983322,147.685654 205.324203,151.414886 
	C196.910507,163.214523 188.435577,174.971802 180.163544,186.870056 
	C178.440109,189.349014 176.624756,190.325226 173.620789,190.221069 
	C167.129807,189.995987 160.610062,190.404358 154.135880,190.005264 
	C152.064560,189.877594 149.397156,188.534683 148.196289,186.880920 
	C137.925598,172.736649 127.932365,158.390961 117.846878,144.112076 
	C116.830276,142.672775 115.752441,141.276718 114.056389,138.988007 
	C114.056389,159.461182 114.056389,178.850540 114.056389,198.616806 
	C89.630760,198.616806 65.585045,198.616806 41.231239,198.616806 
	C41.231239,144.285294 41.231239,89.894943 41.231239,35.169315 
	C42.139397,35.065628 43.078175,34.865810 44.017147,34.864895 
	C63.513474,34.845886 83.010712,34.943180 102.505287,34.756752 
	C105.773430,34.725494 107.175697,36.323406 108.735817,38.630058 
	C126.187668,64.432983 143.701645,90.193916 161.209793,115.958740 
	C162.022919,117.155334 162.939056,118.281921 164.171036,119.926918 
	C173.994232,105.538002 183.536774,91.560188 193.282227,77.286179 
z"/>
<path fill="#FEDB01" opacity="1.000000" stroke="none" 
	d="
M469.631439,50.355690 
	C494.969116,99.843727 520.134949,149.000534 545.730469,198.996521 
	C543.659973,198.996521 542.422363,198.996521 541.184753,198.996521 
	C520.528137,198.996506 499.871124,198.936554 479.215271,199.064926 
	C476.312622,199.082977 474.768127,198.224670 473.581665,195.549484 
	C470.887177,189.474014 467.737396,183.601395 465.000519,177.543381 
	C463.825195,174.941803 462.380493,173.897888 459.370850,173.916763 
	C436.216309,174.062012 413.060242,174.043335 389.905334,173.933670 
	C387.207733,173.920898 385.738251,174.637695 384.570984,177.169754 
	C381.645477,183.515732 378.502808,189.773590 375.132599,195.893524 
	C374.364929,197.287537 372.331360,198.852875 370.868011,198.865204 
	C348.554962,199.053177 326.239838,198.995941 303.149292,198.995941 
	C304.063141,197.123154 304.719910,195.698151 305.442688,194.307449 
	C332.360565,142.514221 359.313293,90.739037 386.136108,38.896626 
	C387.738586,35.799362 389.542297,34.737797 393.004059,34.764481 
	C414.492340,34.930099 435.982971,34.910870 457.471680,34.776867 
	C460.532745,34.757782 462.347198,35.523949 463.601471,38.436466 
	C465.310150,42.404213 467.484772,46.171318 469.631439,50.355690 
M408.978668,128.405762 
	C408.440521,129.767197 407.902344,131.128632 407.250366,132.778015 
	C419.000885,132.778015 430.381073,132.778015 442.391022,132.778015 
	C436.632507,119.569466 431.059509,106.786415 425.028137,92.952042 
	C419.415619,105.327919 414.342316,116.514778 408.978668,128.405762 
z"/>
<path fill="#FCDA02" opacity="1.000000" stroke="none" 
	d="
M780.427734,112.999741 
	C780.427795,86.708572 780.427795,60.917408 780.427795,34.793808 
	C804.944092,34.793808 828.990784,34.793808 853.423096,34.793808 
	C853.423096,53.461113 853.423096,71.902252 853.423096,90.688156 
	C869.856140,90.688156 885.907776,90.688156 902.352600,90.688156 
	C902.352600,72.143173 902.352600,53.709114 902.352600,34.868725 
	C926.627930,34.868725 950.517151,34.868725 974.810059,34.868725 
	C974.810059,89.350410 974.810059,143.873505 974.810059,198.681305 
	C950.883484,198.681305 926.961670,198.681305 902.496399,198.681305 
	C902.496399,179.913116 902.496399,161.174911 902.496399,142.223663 
	C886.025574,142.223663 870.096619,142.223663 853.610352,142.223663 
	C853.610352,161.103455 853.610352,179.828415 853.610352,198.754425 
	C829.105469,198.754425 805.156250,198.754425 780.427734,198.754425 
	C780.427734,170.325089 780.427734,141.912415 780.427734,112.999741 
z"/>
<path fill="#FEDB01" opacity="1.000000" stroke="none" 
	d="
M736.998901,85.961456 
	C722.525391,85.961456 708.551453,85.961456 694.125977,85.961456 
	C694.125977,123.561066 694.125977,160.940125 694.125977,198.736206 
	C669.669556,198.736206 645.661560,198.736206 621.204224,198.736206 
	C621.204224,161.306992 621.204224,123.916588 621.204224,86.043686 
	C600.704651,86.043686 580.643250,86.043686 560.305176,86.043686 
	C560.305176,68.972031 560.305176,52.380871 560.305176,35.394928 
	C624.982544,35.394928 689.799500,35.394928 754.843506,35.394928 
	C754.843506,52.098335 754.843506,68.686798 754.843506,85.961456 
	C749.031189,85.961456 743.264893,85.961456 736.998901,85.961456 
z"/>
<path fill="#05549D" opacity="1.000000" stroke="none" 
	d="
M386.298187,320.832886 
	C391.715210,333.256958 396.968903,345.355042 402.375427,357.804993 
	C390.357056,357.804993 378.989960,357.804993 367.007294,357.804993 
	C372.770691,345.051758 378.345642,332.688293 384.019318,320.370331 
	C384.125458,320.139893 385.403564,320.449310 386.298187,320.832886 
z"/>
<path fill="#05549D" opacity="1.000000" stroke="none" 
	d="
M409.123840,128.053696 
	C414.342316,116.514778 419.415619,105.327919 425.028137,92.952042 
	C431.059509,106.786415 436.632507,119.569466 442.391022,132.778015 
	C430.381073,132.778015 419.000885,132.778015 407.250366,132.778015 
	C407.902344,131.128632 408.440521,129.767197 409.123840,128.053696 
z"/>
</svg>